<svg id="Layer_1" data-name="Layer 1" xmlns="http://www.w3.org/2000/svg" viewBox="0 0 367.81 310.87"><title>texture</title><path d="M142,131.24v0h.07v0A39.82,39.82,0,0,0,174.6,92.1q0-.57,0-1.14t0-1.14a39.83,39.83,0,0,0-32.53-39.15H142a39.83,39.83,0,0,0-32.53,39.15q0,.57,0,1.14t0,1.14A39.82,39.82,0,0,0,142,131.24Z" fill="none" stroke="#201a58" stroke-miterlimit="10" stroke-width="6"/><path d="M95.83,223.73l-5.53-9.39H54.77l-5.53,9.39L37.32,244a47.78,47.78,0,0,1,6.5,24.13,48,48,0,0,1-2.21,14.42v0l7.62-12.14,23.3-37.13,23.29,37.13,7.62,12.14v0A48.08,48.08,0,0,1,107.75,244Z" fill="none" stroke="#201a58" stroke-miterlimit="10" stroke-width="6"/><path d="M113.33,236.25A48.11,48.11,0,0,1,133,222.92h0l-25.85-43.8H77.49l18.34,29.25Z" fill="none" stroke="#201a58" stroke-miterlimit="10" stroke-width="6"/><path d="M26.11,179H3v29.34A32.13,32.13,0,0,0,26.11,179Z" fill="none" stroke="#201a58" stroke-miterlimit="10" stroke-width="6"/><path d="M3,228.94v78.32A39.83,39.83,0,0,0,35.6,268.1,39.83,39.83,0,0,0,3,228.94Z" fill="none" stroke="#201a58" stroke-miterlimit="10" stroke-width="6"/><path d="M38,179.12l-25.85,43.8h0a48.11,48.11,0,0,1,19.62,13.33l17.5-27.88,18.34-29.25H38Z" fill="none" stroke="#201a58" stroke-miterlimit="10" stroke-width="6"/><path d="M3,149.58v29.34H26.11A32.12,32.12,0,0,0,3,149.58Z" fill="none" stroke="#201a58" stroke-miterlimit="10" stroke-width="6"/><path d="M49.24,149.55,38.8,132.92,32.57,123l-.83-1.32A48.31,48.31,0,0,1,17,132.92,48.46,48.46,0,0,1,12.12,135h0L38,178.79H67.58Z" fill="none" stroke="#201a58" stroke-miterlimit="10" stroke-width="6"/><path d="M142,149.59h0v0a32.12,32.12,0,0,0-23,29.32h46.15a32.12,32.12,0,0,0-23-29.32v0Z" fill="none" stroke="#201a58" stroke-miterlimit="10" stroke-width="6"/><path d="M90.3,143.58l5.53-9.4.75-1.26,11.17-19a47.79,47.79,0,0,1-6.46-23,47.79,47.79,0,0,1,6.46-23L96.58,49l-.75-1.27L90.3,38.34H54.77l-5.53,9.39L48.49,49,37.32,68a47.79,47.79,0,0,1,6.46,23,47.79,47.79,0,0,1-6.46,23l11.17,19,.75,1.26,5.53,9.4H90.3ZM93.7,91,72.54,124.69,51.37,91,72.54,57.23Z" fill="none" stroke="#201a58" stroke-miterlimit="10" stroke-width="6"/><path d="M95.83,149.55,77.49,178.79H107.1L133,135h0a48.67,48.67,0,0,1-19.62-13.34L112.5,123l-6.23,9.94Z" fill="none" stroke="#201a58" stroke-miterlimit="10" stroke-width="6"/><path d="M234.83,223.73l-5.53-9.39H193.77l-5.53,9.39L176.32,244a48.08,48.08,0,0,1,4.29,38.55v0l7.62-12.14,23.3-37.13,23.29,37.13,7.62,12.14v0A48.08,48.08,0,0,1,246.75,244Z" fill="none" stroke="#201a58" stroke-miterlimit="10" stroke-width="6"/><path d="M252.33,236.25A48.11,48.11,0,0,1,272,222.92h0l-25.85-43.8H216.49l18.34,29.25Z" fill="none" stroke="#201a58" stroke-miterlimit="10" stroke-width="6"/><path d="M281,208.33h0v0a32.12,32.12,0,0,0,23-29.32H258a32.12,32.12,0,0,0,23,29.32v0Z" fill="none" stroke="#201a58" stroke-miterlimit="10" stroke-width="6"/><path d="M281.07,229v0H281v0a39.81,39.81,0,0,0,0,78.28v0h.07v0a39.81,39.81,0,0,0,0-78.28Z" fill="none" stroke="#201a58" stroke-miterlimit="10" stroke-width="6"/><path d="M315.32,244a48.08,48.08,0,0,1,4.29,38.55v0l42.76-68.16H332.77Z" fill="none" stroke="#201a58" stroke-miterlimit="10" stroke-width="6"/><path d="M309.74,236.25l35.84-57.13H316l-25.85,43.8h0A48.11,48.11,0,0,1,309.74,236.25Z" fill="none" stroke="#201a58" stroke-miterlimit="10" stroke-width="6"/><path d="M281.07,50.67H281a39.83,39.83,0,0,0-32.53,39.15q0,.57,0,1.14t0,1.14A39.82,39.82,0,0,0,281,131.24v0h.07v0A39.82,39.82,0,0,0,313.6,92.1q0-.57,0-1.14t0-1.14A39.83,39.83,0,0,0,281.07,50.67Z" fill="none" stroke="#201a58" stroke-miterlimit="10" stroke-width="6"/><path d="M329.37,91,355.7,49l6.68-10.66H332.77L326.49,49,315.32,68a47.79,47.79,0,0,1,6.46,23,47.79,47.79,0,0,1-6.46,23l11.17,19,6.28,10.66h29.61l-6.68-10.66Z" fill="none" stroke="#201a58" stroke-miterlimit="10" stroke-width="6"/><path d="M316.8,132.92,310.57,123l-.83-1.32A48.67,48.67,0,0,1,290.12,135h0L316,178.79h29.61Z" fill="none" stroke="#201a58" stroke-miterlimit="10" stroke-width="6"/><path d="M142,208.33h0v0a32.12,32.12,0,0,0,23-29.32H119a32.12,32.12,0,0,0,23,29.32v0Z" fill="none" stroke="#201a58" stroke-miterlimit="10" stroke-width="6"/><path d="M142.07,229v0H142v0a39.81,39.81,0,0,0,0,78.28v0h.07v0a39.81,39.81,0,0,0,0-78.28Z" fill="none" stroke="#201a58" stroke-miterlimit="10" stroke-width="6"/><path d="M170.74,236.25l17.5-27.88,18.34-29.25H177l-25.85,43.8h0A48.11,48.11,0,0,1,170.74,236.25Z" fill="none" stroke="#201a58" stroke-miterlimit="10" stroke-width="6"/><path d="M142,32.32v0h.07v0A32.12,32.12,0,0,0,165.11,3H119A32.12,32.12,0,0,0,142,32.32Z" fill="none" stroke="#201a58" stroke-miterlimit="10" stroke-width="6"/><path d="M106.27,49l6.23,9.93.83,1.32A48.74,48.74,0,0,1,133,46.92h0L107.1,3.12H77.49L95.83,32.37Z" fill="none" stroke="#201a58" stroke-miterlimit="10" stroke-width="6"/><path d="M26.11,3H3V32.34A32.13,32.13,0,0,0,26.11,3Z" fill="none" stroke="#201a58" stroke-miterlimit="10" stroke-width="6"/><path d="M35.6,92.1q0-.57,0-1.14t0-1.14A39.83,39.83,0,0,0,3,50.66v80.6A39.83,39.83,0,0,0,35.6,92.1Z" fill="none" stroke="#201a58" stroke-miterlimit="10" stroke-width="6"/><path d="M12.12,46.92A48.46,48.46,0,0,1,17,49,48.12,48.12,0,0,1,31.74,60.25l.83-1.32L38.8,49,49.24,32.37,67.58,3.12H38L12.12,46.92Z" fill="none" stroke="#201a58" stroke-miterlimit="10" stroke-width="6"/><path d="M281,32.32v0h.07v0A32.12,32.12,0,0,0,304.11,3H258A32.12,32.12,0,0,0,281,32.32Z" fill="none" stroke="#201a58" stroke-miterlimit="10" stroke-width="6"/><path d="M245.27,49l6.23,9.93.83,1.32A48.74,48.74,0,0,1,272,46.92h0L246.1,3.12H216.49l18.34,29.25Z" fill="none" stroke="#201a58" stroke-miterlimit="10" stroke-width="6"/><path d="M290.12,46.92a48.74,48.74,0,0,1,19.62,13.33l.83-1.32L316.8,49,345.58,3.12H316l-25.85,43.8Z" fill="none" stroke="#201a58" stroke-miterlimit="10" stroke-width="6"/><path d="M151.12,46.92a48.74,48.74,0,0,1,19.62,13.33l.83-1.32L177.8,49l10.44-16.63L206.58,3.12H177l-25.85,43.8Z" fill="none" stroke="#201a58" stroke-miterlimit="10" stroke-width="6"/><path d="M188.24,149.55,177.8,132.92,171.57,123l-.83-1.32A48.67,48.67,0,0,1,151.12,135h0L177,178.79h29.61Z" fill="none" stroke="#201a58" stroke-miterlimit="10" stroke-width="6"/><path d="M281,149.59h0v0a32.12,32.12,0,0,0-23,29.32h46.15a32.12,32.12,0,0,0-23-29.32v0Z" fill="none" stroke="#201a58" stroke-miterlimit="10" stroke-width="6"/><path d="M229.3,143.58l5.53-9.4.75-1.26,11.17-19a47.79,47.79,0,0,1-6.46-23,47.79,47.79,0,0,1,6.46-23L235.58,49l-.75-1.27-5.53-9.39H193.77l-5.53,9.39L187.49,49,176.32,68a47.79,47.79,0,0,1,6.46,23,47.79,47.79,0,0,1-6.46,23l11.17,19,.75,1.26,5.53,9.4H229.3ZM232.7,91l-21.16,33.73L190.37,91l21.17-33.73Z" fill="none" stroke="#201a58" stroke-miterlimit="10" stroke-width="6"/><path d="M252.33,121.66,251.5,123l-6.23,9.94-10.44,16.63-18.34,29.24H246.1L272,135h0a48.67,48.67,0,0,1-19.62-13.34Z" fill="none" stroke="#201a58" stroke-miterlimit="10" stroke-width="6"/></svg>